<svg xmlns="http://www.w3.org/2000/svg" width="32" height="32" viewBox="0 0 32 32">
    <g fill="none" fill-rule="evenodd">
        <g fill-rule="nonzero">
            <g>
                <g transform="translate(-1415.000000, -3178.000000) translate(0.000000, 3087.000000) translate(1415.000000, 91.000000)">
                    <circle cx="16" cy="16" r="16" fill="#E7E7E7"/>
                    <g fill="#10587F">
                        <path d="M13.7.8H6.3C3.3.8.8 3.2.8 6.3v7.4c0 3 2.4 5.5 5.5 5.5h7.4c3 0 5.5-2.4 5.5-5.5V6.3c0-3-2.5-5.5-5.5-5.5zm3.6 12.9c0 2-1.6 3.6-3.6 3.6H6.3c-2 0-3.6-1.6-3.6-3.6V6.3c0-2 1.6-3.6 3.6-3.6h7.4c2 0 3.6 1.6 3.6 3.6v7.4z" transform="translate(6.000000, 6.000000)"/>
                        <path d="M10 5.3c-2.6 0-4.7 2.1-4.7 4.7s2.1 4.7 4.7 4.7 4.7-2.1 4.7-4.7-2.1-4.7-4.7-4.7zm0 7.6c-1.6 0-2.9-1.3-2.9-2.9 0-1.6 1.3-2.9 2.9-2.9 1.6 0 2.9 1.3 2.9 2.9 0 1.6-1.3 2.9-2.9 2.9zM15.9 5.3c0 .6-.5 1.1-1.1 1.1-.6 0-1.1-.5-1.1-1.1 0-.6.5-1.1 1.1-1.1.6 0 1.1.5 1.1 1.1z" transform="translate(6.000000, 6.000000)"/>
                    </g>
                </g>
            </g>
        </g>
    </g>
</svg>
