<svg xmlns="http://www.w3.org/2000/svg" width="32" height="32" viewBox="0 0 32 32">
    <g fill="none" fill-rule="evenodd">
        <g fill-rule="nonzero">
            <g>
                <g transform="translate(-1463.000000, -3178.000000) translate(0.000000, 3087.000000) translate(1463.000000, 91.000000)">
                    <circle cx="16" cy="16" r="16" fill="#E7E7E7"/>
                    <path fill="#10587F" d="M23.5 6.8h-15c-.9 0-1.7.7-1.7 1.7v15c0 .9.7 1.7 1.7 1.7h15c.9 0 1.7-.7 1.7-1.7v-15c0-.9-.8-1.7-1.7-1.7zm-11 15.9c0 .3-.2.5-.5.5h-2c-.3 0-.5-.2-.5-.5v-8.6c0-.3.2-.5.5-.5h2c.3 0 .5.2.5.5v8.6zM11 12.8c-1.1 0-1.9-.9-1.9-2S10 8.9 11 8.9c1.1 0 1.9.9 1.9 1.9.1 1.1-.8 2-1.9 2zm12.2 9.9c0 .2-.2.4-.4.4h-2.2c-.2 0-.4-.2-.4-.4v-4c0-.6.2-2.6-1.6-2.6-1.4 0-1.6 1.4-1.7 2v4.7c0 .2-.2.4-.4.4h-2.1c-.2 0-.4-.2-.4-.4V14c0-.2.2-.4.4-.4h2.1c.2 0 .4.2.4.4v.8c.5-.8 1.3-1.3 2.8-1.3 3.5 0 3.5 3.3 3.5 5.1v4.1z"/>
                </g>
            </g>
        </g>
    </g>
</svg>
